<svg width="36" height="36" viewBox="0 0 36 36" fill="none" xmlns="http://www.w3.org/2000/svg">
<path d="M34.2701 19.152C34.0205 16.3501 33.6093 15.8044 33.454 15.5992C33.097 15.1249 32.5256 14.815 31.921 14.4898C31.8868 14.4717 31.8573 14.446 31.8348 14.4145C31.8123 14.3831 31.7973 14.3468 31.7912 14.3086C31.7851 14.2705 31.7879 14.2314 31.7995 14.1945C31.8111 14.1576 31.8311 14.1239 31.8579 14.096C31.9699 13.9824 32.0559 13.846 32.1102 13.696C32.1644 13.5461 32.1855 13.3861 32.172 13.2272C32.1459 12.9454 32.0149 12.6838 31.8049 12.4941C31.5949 12.3044 31.3213 12.2005 31.0384 12.2031H29.9567C29.9104 12.2034 29.8641 12.2064 29.8181 12.2121C29.7865 12.1984 29.7538 12.1875 29.7203 12.1796C29.0796 10.8254 28.2025 8.97138 26.3845 8.06654C23.6881 6.72559 18.7208 6.65625 17.7501 6.65625C16.7794 6.65625 11.8122 6.72559 9.1192 8.06446C7.30121 8.9693 6.42411 10.8233 5.78345 12.1775L5.7779 12.1886C5.74595 12.1931 5.71457 12.201 5.6843 12.2121C5.63829 12.2064 5.59199 12.2034 5.54562 12.2031H4.4619C4.17894 12.2005 3.90533 12.3044 3.69535 12.4941C3.48536 12.6838 3.35434 12.9454 3.32826 13.2272C3.31595 13.3857 3.33801 13.5451 3.39293 13.6943C3.44786 13.8435 3.53436 13.9791 3.64651 14.0918C3.67335 14.1197 3.69334 14.1534 3.70491 14.1903C3.71649 14.2272 3.71933 14.2663 3.71321 14.3045C3.70709 14.3427 3.69218 14.3789 3.66966 14.4104C3.64713 14.4418 3.61761 14.4676 3.58342 14.4857C2.97881 14.8129 2.40471 15.1229 2.0504 15.595C1.89509 15.803 1.48462 16.3459 1.23432 19.1478C1.09564 20.7245 1.07484 22.3567 1.1837 23.4078C1.41182 25.5919 1.83962 26.9121 1.85765 26.9668C1.92329 27.1662 2.04413 27.3428 2.20614 27.4762C2.36814 27.6096 2.56466 27.6943 2.77288 27.7205V27.7344C2.77288 28.0286 2.88976 28.3108 3.09781 28.5188C3.30586 28.7269 3.58803 28.8438 3.88226 28.8438H7.76507C8.05929 28.8438 8.34147 28.7269 8.54952 28.5188C8.75756 28.3108 8.87444 28.0286 8.87444 27.7344C9.47143 27.7344 9.88675 27.6276 10.327 27.5139C10.9627 27.3426 11.6124 27.2287 12.2684 27.1734C14.3839 26.9717 16.4875 26.9023 17.7501 26.9023C18.9871 26.9023 21.1837 26.9717 23.3026 27.1734C23.9612 27.2288 24.6135 27.3432 25.2516 27.5153C25.6732 27.6234 26.0732 27.7233 26.6272 27.7337C26.6272 28.0279 26.7441 28.3101 26.9521 28.5181C27.1602 28.7262 27.4424 28.8431 27.7366 28.8431H31.6194C31.9136 28.8431 32.1958 28.7262 32.4039 28.5181C32.6119 28.3101 32.7288 28.0279 32.7288 27.7337V27.7254C32.9375 27.6997 33.1346 27.6152 33.2971 27.4817C33.4597 27.3483 33.5809 27.1714 33.6468 26.9717C33.6648 26.9169 34.0926 25.5967 34.3207 23.4127C34.4296 22.3608 34.4102 20.7314 34.2701 19.152ZM7.78864 13.126C8.34333 11.9473 8.97775 10.6133 10.1072 10.0509C11.7394 9.23832 15.1223 8.87223 17.7501 8.87223C20.378 8.87223 23.7609 9.23555 25.393 10.0509C26.5225 10.6133 27.1542 11.948 27.7116 13.126L27.781 13.2764C27.8215 13.3621 27.8394 13.4567 27.833 13.5513C27.8266 13.6458 27.7961 13.7371 27.7444 13.8165C27.6926 13.896 27.6214 13.9608 27.5375 14.0048C27.4536 14.0489 27.3598 14.0707 27.2651 14.0683C24.9611 14.0059 20.1076 13.8062 17.7501 13.8062C15.3927 13.8062 10.5392 14.0107 8.2317 14.0731C8.13697 14.0756 8.04318 14.0538 7.95928 14.0097C7.87538 13.9656 7.80417 13.9008 7.75244 13.8214C7.70071 13.742 7.67018 13.6507 7.66378 13.5561C7.65737 13.4616 7.67529 13.367 7.71584 13.2813C7.74011 13.23 7.76576 13.178 7.78864 13.126ZM8.61582 18.6472C7.42311 18.7908 6.22276 18.8616 5.02144 18.8594C4.28648 18.8594 3.52864 18.6514 3.38789 17.9968C3.29151 17.5566 3.30191 17.309 3.35392 17.0601C3.3976 16.8486 3.46693 16.6947 3.81361 16.6406C4.71498 16.502 5.21905 16.676 6.69452 17.1107C7.67285 17.3985 8.37869 17.7819 8.78084 18.0856C8.98261 18.2354 8.87514 18.6264 8.61582 18.6472ZM23.9654 24.3328C23.0529 24.4368 21.228 24.3986 17.7709 24.3986C14.3138 24.3986 12.4896 24.4368 11.5772 24.3328C10.6356 24.2281 9.43537 23.3378 10.2549 22.5446C10.8006 22.0218 12.0736 21.6307 13.7689 21.4109C15.4641 21.1911 16.1818 21.0781 17.764 21.0781C19.3463 21.0781 19.9911 21.1475 21.7591 21.4116C23.5272 21.6758 24.8633 22.0717 25.2731 22.5453C26.0205 23.3939 24.9063 24.2225 23.9654 24.3369V24.3328ZM32.1124 17.9961C31.9737 18.6534 31.211 18.8587 30.4788 18.8587C29.2545 18.859 28.0312 18.7881 26.8151 18.6465C26.6029 18.6264 26.5045 18.2541 26.7194 18.0849C27.1153 17.7736 27.8288 17.3978 28.8058 17.11C30.2812 16.6753 31.132 16.5013 31.8628 16.6462C32.041 16.6815 32.1353 16.8729 32.1464 16.9929C32.1953 17.3268 32.1838 17.6669 32.1124 17.9968V17.9961Z" fill="white"/>
</svg>
