<svg width="29" height="29" viewBox="0 0 29 29" fill="none" xmlns="http://www.w3.org/2000/svg">
<g opacity="0.5">
<path d="M10.8444 27.6092C10.6952 27.6094 10.5477 27.5768 10.4124 27.5139C10.2771 27.4509 10.1572 27.3591 10.0612 27.2449C9.9652 27.1307 9.89535 26.9968 9.85659 26.8527C9.81783 26.7086 9.81109 26.5578 9.83686 26.4108V26.4047L11.4016 17.8124H5.34365C5.17551 17.8123 5.0108 17.7647 4.86858 17.675C4.72636 17.5853 4.61244 17.4572 4.54001 17.3054C4.46757 17.1537 4.43957 16.9845 4.45924 16.8175C4.47892 16.6505 4.54547 16.4925 4.65119 16.3618L16.8511 1.28014C16.99 1.10386 17.1827 0.977924 17.3999 0.921576C17.6172 0.865229 17.8469 0.881576 18.0539 0.968117C18.2609 1.05466 18.4339 1.20663 18.5464 1.4008C18.6589 1.59496 18.7048 1.82063 18.6769 2.04329C18.6769 2.05999 18.6724 2.07614 18.6696 2.09283L17.0993 10.6874H23.1562C23.3243 10.6874 23.489 10.735 23.6312 10.8247C23.7735 10.9144 23.8874 11.0426 23.9598 11.1943C24.0322 11.3461 24.0602 11.5152 24.0406 11.6822C24.0209 11.8492 23.9543 12.0072 23.8486 12.138L11.6471 27.2196C11.5512 27.3407 11.4292 27.4387 11.2902 27.5061C11.1513 27.5736 10.9989 27.6088 10.8444 27.6092Z" fill="white"/>
</g>
</svg>
