<svg width="34" height="34" viewBox="0 0 34 34" fill="none" xmlns="http://www.w3.org/2000/svg">
<g opacity="0.5" clip-path="url(#clip0_219_94)">
<mask id="mask0_219_94" style="mask-type:alpha" maskUnits="userSpaceOnUse" x="0" y="0" width="34" height="34">
<rect width="33.5" height="33.5" fill="#D9D9D9"/>
</mask>
<g mask="url(#mask0_219_94)">
<path d="M20.0302 28.9988L12.5625 26.3817L6.07187 28.8942C5.6066 29.0803 5.17622 29.0277 4.78073 28.7364C4.38524 28.4461 4.1875 28.0567 4.1875 27.5681V8.02645C4.1875 7.72402 4.27497 7.45648 4.44992 7.22385C4.62393 6.99121 4.86215 6.81673 5.16458 6.70041L11.6552 4.50197C11.9576 4.40891 12.2601 4.35634 12.5625 4.34424C12.8649 4.33307 13.1674 4.38565 13.4698 4.50197L20.9375 7.11916L27.4281 4.60666C27.8934 4.42055 28.3238 4.47266 28.7193 4.76299C29.1148 5.05425 29.3125 5.44416 29.3125 5.9327V25.4744C29.3125 25.7768 29.225 26.0443 29.0501 26.277C28.8761 26.5096 28.6378 26.6841 28.3354 26.8004L21.8448 28.9988C21.5424 29.0919 21.2399 29.144 20.9375 29.1552C20.6351 29.1673 20.3326 29.1152 20.0302 28.9988ZM19.5417 25.8931V9.56187L13.9583 7.6077V23.9389L19.5417 25.8931Z" fill="white"/>
</g>
</g>
<defs>
<clipPath id="clip0_219_94">
<rect width="33.5" height="33.5" fill="white"/>
</clipPath>
</defs>
</svg>
